<?xml version="1.0" encoding="utf-8"?>
<!-- Generator: Adobe Illustrator 22.1.0, SVG Export Plug-In . SVG Version: 6.00 Build 0)  -->
<svg version="1.1" id="Camada_1" xmlns="http://www.w3.org/2000/svg" xmlns:xlink="http://www.w3.org/1999/xlink" x="0px" y="0px"
	 viewBox="0 0 932.4 362.3" style="enable-background:new 0 0 932.4 362.3;" xml:space="preserve">
<path d="M149.7,187c0-24.3-11-41.5-55.3-41.5C50,145.5,20,162.7,20,196.1c-9.1-12.9-12.9-24.8-12.9-34.8c0-32.4,41-49.1,87.3-49.1
	c60.6,0,93.5,28.6,93.5,76.8v170.8c-11.4-4.8-21.5-6.2-31.5-6.2c-21.9,0-42,8.6-68.2,8.6C44.8,362.2,0,343.6,0,292.1
	C0,199.9,133,232.8,149.7,187z M151.2,224.7c-9.1,32-113.1,11-113.1,67.7c0,21,15.7,39.1,56.8,39.1c34.8,0,56.3-12.9,56.3-12.9
	V224.7z"/>
<path d="M522,187c0-24.3-11-41.5-55.3-41.5c-44.4,0-74.4,17.2-74.4,50.6c-9.1-12.9-12.9-24.8-12.9-34.8c0-32.4,41-49.1,87.3-49.1
	c60.6,0,93.5,28.6,93.5,76.8v170.8c-11.4-4.8-21.5-6.2-31.5-6.2c-21.9,0-42,8.6-68.2,8.6c-43.4,0-88.2-18.6-88.2-70.1
	C372.2,199.9,505.3,232.8,522,187z M523.4,224.7c-9.1,32-113.1,11-113.1,67.7c0,21,15.7,39.1,56.8,39.1c34.8,0,56.3-12.9,56.3-12.9
	V224.7z"/>
<g>
	<path d="M367,292c0-13,2.6-23.6,7.1-32.2V138.4c0-23.8-38.2-23.8-38.2-23.8v205.6c0,0-22.4,10-57.2,10c-42.5,0-57.7-17.2-57.7-46.7
		v-145c0-23.4-38.2-23.8-38.2-23.8v176c0,56.3,45.8,71.6,89.2,71.6c27.2,0,48.2-10,71.1-10c9.5,0,20,1.9,31,7.6V324
		C369.6,315,367,304.4,367,292z"/>
</g>
<path d="M894.2,187c0-24.3-11-41.5-55.3-41.5c-44.4,0-74.4,17.2-74.4,50.6c-9.1-12.9-12.9-24.8-12.9-34.8c0-32.4,41-49.1,87.3-49.1
	c60.6,0,93.5,28.6,93.5,76.8v170.8c-11.4-4.8-21.5-6.2-31.5-6.2c-21.9,0-42,8.6-68.2,8.6c-43.4,0-88.2-18.6-88.2-70.1
	C744.4,199.9,877.5,232.8,894.2,187z M895.7,224.7c-9.1,32-113.1,11-113.1,67.7c0,21,15.7,39.1,56.8,39.1
	c34.8,0,56.3-12.9,56.3-12.9V224.7z"/>
<g>
	<path d="M739.2,292c0-13,2.6-23.6,7.1-32.3v-72.2c0-47.2-38.6-75.4-83.5-75.4c-57.7,0-74.4,26.2-74.4,26.2s4.8-11,4.8-43.4V28.6
		C593.2-1,557.9,0,555,0v335.8c0,23.9,38.2,23.9,38.2,23.9V189.9c0-27.7,32-46.7,63.4-46.7c29.6,0,51.5,15.7,51.5,51.5v141.2
		c0,23.4,38.2,23.9,38.2,23.9v-35.9C741.8,315,739.2,304.4,739.2,292z"/>
</g>
</svg>
